<svg xmlns="http://www.w3.org/2000/svg" xmlns:xlink="http://www.w3.org/1999/xlink" width="500" zoomAndPan="magnify" viewBox="0 0 375 374.999991" height="500" preserveAspectRatio="xMidYMid meet" version="1.0"><defs><g/></defs><path stroke-linecap="butt" transform="matrix(0.898367, 0, 0, 0.898367, 119.688901, 161.447349)" fill="none" stroke-linejoin="miter" d="M 143.335778 0.206446 L 135.639521 49.00158 L 122.951569 49.00158 L 130.665218 0.206446 Z M 169.485656 0.206446 C 173.886002 0.206446 177.416714 1.245658 180.073444 3.319733 C 182.725826 5.385113 184.052017 8.354911 184.052017 12.233477 C 184.052017 16.381628 182.821486 20.042785 180.356075 23.212599 C 177.89936 26.382413 174.751287 28.313 170.907507 28.995662 L 183.073679 49.00158 L 167.289832 49.00158 L 158.297822 30.230541 L 158.154332 30.230541 L 155.184534 49.00158 L 142.496581 49.00158 L 150.205882 0.206446 Z M 159.450086 22.073379 L 161.206746 22.073379 C 164.18524 22.073379 166.494117 21.447243 168.12468 20.194971 C 169.768287 18.942699 170.590091 17.107772 170.590091 14.694539 C 170.590091 11.502984 167.959449 9.907207 162.689471 9.907207 L 161.393717 9.907207 Z M 220.554882 0.206446 L 218.863445 10.950767 L 203.788349 10.950767 L 202.492595 19.103581 L 216.793717 19.103581 L 215.119673 29.847903 L 200.805506 29.847903 L 199.444529 38.257258 L 214.53267 38.257258 L 212.845581 49.00158 L 185.082533 49.00158 L 192.791833 0.206446 Z M 220.554882 0.206446 " stroke="#233ce6" stroke-width="2.427266" stroke-opacity="1" stroke-miterlimit="4"/><g fill="#233ce6" fill-opacity="1"><g transform="translate(44.159049, 205.467331)"><g><path d="M 35.8125 -43.84375 L 34.296875 -34.1875 L 20.53125 -34.1875 L 19.359375 -26.859375 L 31.859375 -26.859375 L 30.34375 -17.203125 L 17.84375 -17.203125 L 15.109375 0 L 3.71875 0 L 10.640625 -43.84375 Z M 35.8125 -43.84375 "/></g></g></g><g fill="#233ce6" fill-opacity="1"><g transform="translate(74.392286, 205.467331)"><g><path d="M 27.96875 -43.84375 C 31.914062 -43.84375 35.082031 -42.910156 37.46875 -41.046875 C 39.851562 -39.179688 41.046875 -36.507812 41.046875 -33.03125 C 41.046875 -29.300781 39.941406 -26.007812 37.734375 -23.15625 C 35.523438 -20.3125 32.695312 -18.582031 29.25 -17.96875 L 40.171875 0 L 25.984375 0 L 17.90625 -16.859375 L 17.796875 -16.859375 L 15.109375 0 L 3.71875 0 L 10.640625 -43.84375 Z M 18.953125 -24.1875 L 20.53125 -24.1875 C 23.195312 -24.1875 25.265625 -24.75 26.734375 -25.875 C 28.210938 -27 28.953125 -28.644531 28.953125 -30.8125 C 28.953125 -33.675781 26.585938 -35.109375 21.859375 -35.109375 L 20.703125 -35.109375 Z M 18.953125 -24.1875 "/></g></g></g><g fill="#233ce6" fill-opacity="1"><g transform="translate(112.649003, 205.467331)"><g><path d="M 35.578125 -43.84375 L 34.078125 -34.1875 L 20.53125 -34.1875 L 19.359375 -26.859375 L 32.203125 -26.859375 L 30.703125 -17.203125 L 17.84375 -17.203125 L 16.625 -9.65625 L 30.171875 -9.65625 L 28.65625 0 L 3.71875 0 L 10.640625 -43.84375 Z M 35.578125 -43.84375 "/></g></g></g><g fill="#233ce6" fill-opacity="1"><g transform="translate(143.347366, 205.467331)"><g><path d="M 25.703125 -45 C 30.390625 -45 34.785156 -43.796875 38.890625 -41.390625 L 32.96875 -32.5625 C 30.914062 -34.5 28.550781 -35.46875 25.875 -35.46875 C 24.476562 -35.46875 23.207031 -35.066406 22.0625 -34.265625 C 20.914062 -33.472656 20.34375 -32.5 20.34375 -31.34375 C 20.34375 -30.488281 20.75 -29.738281 21.5625 -29.09375 C 22.382812 -28.457031 23.878906 -27.828125 26.046875 -27.203125 C 28.992188 -26.316406 31.125 -25.457031 32.4375 -24.625 C 33.757812 -23.789062 34.785156 -22.757812 35.515625 -21.53125 C 36.253906 -20.3125 36.625 -18.796875 36.625 -16.984375 C 36.625 -14.347656 35.945312 -11.554688 34.59375 -8.609375 C 33.238281 -5.660156 31.019531 -3.3125 27.9375 -1.5625 C 24.851562 0.175781 21.203125 1.082031 16.984375 1.15625 C 11.554688 1.15625 6.671875 -0.507812 2.328125 -3.84375 L 8.65625 -13.03125 C 11.6875 -10 14.8125 -8.484375 18.03125 -8.484375 C 19.8125 -8.484375 21.3125 -8.945312 22.53125 -9.875 C 23.75 -10.8125 24.359375 -12 24.359375 -13.4375 C 24.359375 -15.289062 22.5 -16.722656 18.78125 -17.734375 C 14.28125 -18.972656 11.367188 -20.300781 10.046875 -21.71875 C 8.734375 -23.132812 8.078125 -25.023438 8.078125 -27.390625 C 8.078125 -32.347656 9.769531 -36.519531 13.15625 -39.90625 C 16.550781 -43.300781 20.734375 -45 25.703125 -45 Z M 25.703125 -45 "/></g></g></g><g fill="#233ce6" fill-opacity="1"><g transform="translate(177.824913, 205.467331)"><g><path d="M 22.03125 -43.84375 L 19.359375 -26.921875 L 35.8125 -26.921875 L 38.484375 -43.84375 L 49.890625 -43.84375 L 42.96875 0 L 31.5625 0 L 34.421875 -17.96875 L 17.96875 -17.96875 L 15.109375 0 L 3.71875 0 L 10.640625 -43.84375 Z M 22.03125 -43.84375 "/></g></g></g><g fill="#233ce6" fill-opacity="1"><g transform="translate(223.242896, 205.467331)"><g/></g></g></svg>